<?xml version="1.0" standalone="no"?>
<!DOCTYPE svg PUBLIC "-//W3C//DTD SVG 20010904//EN"
 "http://www.w3.org/TR/2001/REC-SVG-20010904/DTD/svg10.dtd">
<svg version="1.0" xmlns="http://www.w3.org/2000/svg"
 width="512.000000pt" height="512.000000pt" viewBox="0 0 512.000000 512.000000"
 preserveAspectRatio="xMidYMid meet">
<metadata>
Created by potrace 1.14, written by Peter Selinger 2001-2017
</metadata>
<g transform="translate(0.000000,512.000000) scale(0.100000,-0.100000)"
fill="#000000" stroke="none">
<path d="M1812 4840 c-165 -11 -342 -41 -447 -75 -118 -39 -307 -136 -415
-212 -267 -189 -497 -498 -594 -798 -70 -219 -77 -305 -83 -1048 -8 -1036 11
-1214 168 -1532 219 -446 659 -781 1129 -859 184 -30 448 -38 1123 -33 644 5
733 9 902 43 180 36 399 134 565 251 267 189 497 498 594 798 70 219 77 305
83 1048 8 1036 -11 1214 -168 1532 -79 161 -170 287 -309 425 -174 175 -395
312 -615 384 -225 72 -299 78 -1105 81 -382 2 -755 -1 -828 -5z m968 -1465 l0
-535 -205 0 -205 0 0 365 0 365 -179 0 -179 0 56 170 57 170 327 0 328 0 0
-535z m15 -709 c117 -40 209 -98 301 -191 66 -66 90 -99 128 -176 65 -132 81
-200 81 -344 0 -97 -5 -134 -24 -195 -41 -134 -96 -226 -191 -320 -96 -96
-178 -148 -295 -187 -73 -25 -94 -27 -230 -28 -139 0 -156 2 -230 28 -399 140
-604 553 -469 949 79 234 278 416 521 478 116 29 298 23 408 -14z"/>
<path d="M2443 2346 c-107 -35 -194 -114 -246 -224 -28 -60 -31 -77 -32 -162
0 -86 3 -101 32 -162 101 -213 329 -298 543 -202 74 33 160 121 198 201 23 51
27 70 27 158 -1 81 -5 111 -24 158 -32 81 -115 168 -199 209 -59 29 -77 33
-162 35 -59 2 -111 -3 -137 -11z"/>
</g>
</svg>
